<svg xmlns="http://www.w3.org/2000/svg" xmlns:xlink="http://www.w3.org/1999/xlink" width="12px" height="14px" viewBox="0 0 12 13" version="1.1">
<g>
<path style=" fill:rgb(88,86,114);fill-opacity:1;" d="M 11.75 7.074219 C 12.082031 6.757812 12.082031 6.242188 11.75 5.921875 L 7.460938 1.859375 C 7.128906 1.542969 6.582031 1.542969 6.25 1.859375 C 5.914062 2.179688 5.914062 2.695312 6.25 3.011719 L 9.074219 5.6875 L 0.855469 5.6875 C 0.382812 5.6875 0 6.050781 0 6.5 C 0 6.949219 0.382812 7.3125 0.855469 7.3125 L 9.074219 7.3125 L 6.25 9.988281 C 5.917969 10.304688 5.917969 10.820312 6.25 11.140625 C 6.585938 11.457031 7.128906 11.457031 7.464844 11.140625 L 11.75 7.078125 Z M 11.75 7.074219 "/>
</g>
</svg>
