<?xml version="1.0" encoding="UTF-8"?>
<svg xmlns="http://www.w3.org/2000/svg" xmlns:xlink="http://www.w3.org/1999/xlink" width="12px" height="14px" viewBox="0 0 12 13" version="1.1">
<g id="surface1">
<path style=" stroke:none;fill-rule:nonzero;fill:#9a9a9a;fill-opacity:1;" d="M 2.570312 0.8125 L 2.570312 1.625 L 1.285156 1.625 C 0.574219 1.625 0 2.171875 0 2.84375 L 0 4.0625 L 12 4.0625 L 12 2.84375 C 12 2.171875 11.425781 1.625 10.714844 1.625 L 9.429688 1.625 L 9.429688 0.8125 C 9.429688 0.363281 9.046875 0 8.570312 0 C 8.097656 0 7.714844 0.363281 7.714844 0.8125 L 7.714844 1.625 L 4.285156 1.625 L 4.285156 0.8125 C 4.285156 0.363281 3.902344 0 3.429688 0 C 2.953125 0 2.570312 0.363281 2.570312 0.8125 Z M 12 4.875 L 0 4.875 L 0 11.78125 C 0 12.453125 0.574219 13 1.285156 13 L 10.714844 13 C 11.425781 13 12 12.453125 12 11.78125 Z M 12 4.875 "/>
</g>
</svg>
