<svg xmlns="http://www.w3.org/2000/svg" xmlns:xlink="http://www.w3.org/1999/xlink" width="px" height="20px" viewBox="0 0 22 20" version="1.1">
<g>
<path d="M 0 0.9375 C 0 0.417969 0.410156 0 0.917969 0 L 2.65625 0 C 3.496094 0 4.238281 0.5 4.585938 1.25 L 20.285156 1.25 C 21.289062 1.25 22.023438 2.226562 21.757812 3.21875 L 20.195312 9.167969 C 19.867188 10.394531 18.78125 11.25 17.539062 11.25 L 6.519531 11.25 L 6.726562 12.363281 C 6.808594 12.804688 7.1875 13.125 7.628906 13.125 L 18.640625 13.125 C 19.148438 13.125 19.554688 13.542969 19.554688 14.0625 C 19.554688 14.582031 19.148438 15 18.640625 15 L 7.628906 15 C 6.304688 15 5.171875 14.039062 4.925781 12.714844 L 2.957031 2.128906 C 2.929688 1.980469 2.804688 1.875 2.65625 1.875 L 0.917969 1.875 C 0.410156 1.875 0 1.457031 0 0.9375 Z M 4.890625 18.125 C 4.890625 17.089844 5.710938 16.25 6.722656 16.25 C 7.734375 16.25 8.554688 17.089844 8.554688 18.125 C 8.554688 19.160156 7.734375 20 6.722656 20 C 5.710938 20 4.890625 19.160156 4.890625 18.125 Z M 17.722656 16.25 C 18.734375 16.25 19.554688 17.089844 19.554688 18.125 C 19.554688 19.160156 18.734375 20 17.722656 20 C 16.710938 20 15.890625 19.160156 15.890625 18.125 C 15.890625 17.089844 16.710938 16.25 17.722656 16.25 Z M 17.722656 16.25 "/>
</g>
</svg>
