<svg xmlns="http://www.w3.org/2000/svg" xmlns:xlink="http://www.w3.org/1999/xlink" width="px" height="20px" viewBox="0 0 20 20" version="1.1">
<g>
<path d="M 8.820312 18.289062 L 8.722656 18.199219 L 1.878906 11.84375 C 0.679688 10.730469 0 9.167969 0 7.53125 L 0 7.402344 C 0 4.652344 1.953125 2.292969 4.65625 1.777344 C 6.195312 1.480469 7.769531 1.835938 9.023438 2.71875 C 9.375 2.96875 9.703125 3.257812 10 3.589844 C 10.164062 3.402344 10.339844 3.230469 10.527344 3.070312 C 10.671875 2.945312 10.820312 2.828125 10.976562 2.71875 C 12.230469 1.835938 13.804688 1.480469 15.34375 1.773438 C 18.046875 2.289062 20 4.652344 20 7.402344 L 20 7.53125 C 20 9.167969 19.320312 10.730469 18.121094 11.84375 L 11.277344 18.199219 L 11.179688 18.289062 C 10.859375 18.585938 10.4375 18.753906 10 18.753906 C 9.5625 18.753906 9.140625 18.589844 8.820312 18.289062 Z M 9.339844 5.664062 C 9.324219 5.652344 9.3125 5.636719 9.300781 5.621094 L 8.605469 4.839844 C 8.605469 4.839844 8.601562 4.835938 8.601562 4.835938 C 7.699219 3.824219 6.335938 3.363281 5.007812 3.617188 C 3.1875 3.964844 1.875 5.550781 1.875 7.402344 L 1.875 7.53125 C 1.875 8.644531 2.339844 9.710938 3.15625 10.46875 L 10 16.824219 L 16.84375 10.46875 C 17.660156 9.710938 18.125 8.644531 18.125 7.53125 L 18.125 7.402344 C 18.125 5.554688 16.8125 3.964844 14.996094 3.617188 C 13.667969 3.363281 12.300781 3.828125 11.402344 4.835938 C 11.402344 4.835938 11.402344 4.835938 11.398438 4.839844 C 11.394531 4.84375 11.398438 4.839844 11.394531 4.84375 L 10.699219 5.625 C 10.6875 5.640625 10.671875 5.652344 10.660156 5.667969 C 10.484375 5.84375 10.246094 5.941406 10 5.941406 C 9.753906 5.941406 9.515625 5.84375 9.339844 5.667969 Z M 9.339844 5.664062 "/>
</g>
</svg>