<svg xmlns="http://www.w3.org/2000/svg" xmlns:xlink="http://www.w3.org/1999/xlink" width="px" height="16px" viewBox="0 0 14 16" version="1.1">
<g>
<path d="M 7.003906 4.40625 C 5.015625 4.40625 3.414062 6.007812 3.414062 7.996094 C 3.414062 9.984375 5.015625 11.585938 7.003906 11.585938 C 8.992188 11.585938 10.59375 9.984375 10.59375 7.996094 C 10.59375 6.007812 8.992188 4.40625 7.003906 4.40625 Z M 7.003906 10.332031 C 5.71875 10.332031 4.667969 9.285156 4.667969 7.996094 C 4.667969 6.710938 5.714844 5.664062 7.003906 5.664062 C 8.289062 5.664062 9.335938 6.710938 9.335938 7.996094 C 9.335938 9.285156 8.289062 10.332031 7.003906 10.332031 Z M 11.578125 4.257812 C 11.578125 4.726562 11.203125 5.097656 10.742188 5.097656 C 10.273438 5.097656 9.902344 4.722656 9.902344 4.257812 C 9.902344 3.796875 10.277344 3.421875 10.742188 3.421875 C 11.203125 3.421875 11.578125 3.796875 11.578125 4.257812 Z M 13.957031 5.109375 C 13.902344 3.988281 13.648438 2.992188 12.824219 2.175781 C 12.007812 1.355469 11.011719 1.101562 9.890625 1.042969 C 8.734375 0.976562 5.269531 0.976562 4.113281 1.042969 C 2.992188 1.097656 2 1.351562 1.179688 2.171875 C 0.355469 2.992188 0.101562 3.984375 0.046875 5.105469 C -0.0195312 6.261719 -0.0195312 9.726562 0.046875 10.882812 C 0.101562 12.007812 0.355469 13 1.179688 13.820312 C 2 14.636719 2.992188 14.894531 4.113281 14.949219 C 5.269531 15.015625 8.734375 15.015625 9.890625 14.949219 C 11.011719 14.898438 12.007812 14.640625 12.824219 13.820312 C 13.644531 13 13.898438 12.007812 13.957031 10.882812 C 14.023438 9.726562 14.023438 6.265625 13.957031 5.109375 Z M 12.460938 12.125 C 12.21875 12.738281 11.746094 13.210938 11.132812 13.457031 C 10.210938 13.820312 8.023438 13.738281 7.003906 13.738281 C 5.984375 13.738281 3.792969 13.820312 2.875 13.457031 C 2.261719 13.210938 1.789062 12.742188 1.542969 12.125 C 1.179688 11.203125 1.261719 9.015625 1.261719 7.996094 C 1.261719 6.976562 1.179688 4.789062 1.542969 3.867188 C 1.789062 3.257812 2.257812 2.785156 2.875 2.539062 C 3.796875 2.171875 5.984375 2.257812 7.003906 2.257812 C 8.023438 2.257812 10.210938 2.175781 11.132812 2.539062 C 11.742188 2.78125 12.214844 3.253906 12.460938 3.867188 C 12.828125 4.789062 12.742188 6.976562 12.742188 7.996094 C 12.742188 9.015625 12.828125 11.207031 12.460938 12.125 Z M 12.460938 12.125 "/>
</g>
</svg>