<svg xmlns="http://www.w3.org/2000/svg" xmlns:xlink="http://www.w3.org/1999/xlink" width="px" height="16px" viewBox="0 0 20 16" version="1.1">
<g >
<path d="M 12.066406 7.140625 C 12.121094 7.445312 12.164062 7.746094 12.164062 8.140625 C 12.164062 11.570312 9.863281 14 6.398438 14 C 3.085938 14 0.398438 11.316406 0.398438 8 C 0.398438 4.683594 3.085938 2 6.398438 2 C 8.023438 2 9.371094 2.589844 10.417969 3.570312 L 8.789062 5.132812 C 8.351562 4.710938 7.570312 4.210938 6.398438 4.210938 C 4.351562 4.210938 2.683594 5.902344 2.683594 8 C 2.683594 10.097656 4.351562 11.789062 6.398438 11.789062 C 8.773438 11.789062 9.664062 10.082031 9.804688 9.203125 L 6.398438 9.203125 L 6.398438 7.140625 Z M 17.859375 7.339844 L 17.859375 5.601562 L 16.109375 5.601562 L 16.109375 7.339844 L 14.367188 7.339844 L 14.367188 9.089844 L 16.109375 9.089844 L 16.109375 10.832031 L 17.859375 10.832031 L 17.859375 9.089844 L 19.601562 9.089844 L 19.601562 7.339844 Z M 17.859375 7.339844 "/>
</g>
</svg>