<svg xmlns="http://www.w3.org/2000/svg" xmlns:xlink="http://www.w3.org/1999/xlink" width="px" height="16px" viewBox="0 0 16 16" version="1.1">
<g>
<path d="M 14.355469 4.742188 C 14.367188 4.882812 14.367188 5.023438 14.367188 5.164062 C 14.367188 9.5 11.066406 14.496094 5.035156 14.496094 C 3.175781 14.496094 1.449219 13.960938 0 13.023438 C 0.261719 13.054688 0.519531 13.066406 0.789062 13.066406 C 2.324219 13.066406 3.734375 12.546875 4.863281 11.664062 C 3.421875 11.632812 2.210938 10.691406 1.796875 9.390625 C 2 9.421875 2.203125 9.441406 2.414062 9.441406 C 2.710938 9.441406 3.003906 9.398438 3.277344 9.328125 C 1.773438 9.023438 0.648438 7.703125 0.648438 6.109375 L 0.648438 6.070312 C 1.085938 6.3125 1.59375 6.464844 2.132812 6.484375 C 1.246094 5.898438 0.667969 4.890625 0.667969 3.753906 C 0.667969 3.144531 0.832031 2.585938 1.117188 2.097656 C 2.730469 4.085938 5.15625 5.386719 7.878906 5.527344 C 7.828125 5.285156 7.796875 5.03125 7.796875 4.777344 C 7.796875 2.972656 9.257812 1.5 11.074219 1.5 C 12.019531 1.5 12.871094 1.898438 13.472656 2.535156 C 14.210938 2.394531 14.925781 2.117188 15.554688 1.742188 C 15.308594 2.507812 14.789062 3.144531 14.113281 3.550781 C 14.773438 3.476562 15.414062 3.296875 16 3.042969 C 15.554688 3.695312 14.992188 4.273438 14.355469 4.742188 Z M 14.355469 4.742188 "/>
</g>
</svg>