<svg xmlns="http://www.w3.org/2000/svg" xmlns:xlink="http://www.w3.org/1999/xlink" width="17px" height="15px" viewBox="0 0 16 15" version="1.1">
<g>
<path d="M 8.804688 0.527344 C 8.65625 0.203125 8.34375 0 8.003906 0 C 7.660156 0 7.351562 0.203125 7.203125 0.527344 L 5.417969 4.402344 L 1.429688 5.023438 C 1.09375 5.078125 0.816406 5.324219 0.714844 5.660156 C 0.609375 5.996094 0.695312 6.367188 0.933594 6.617188 L 3.828125 9.640625 L 3.144531 13.90625 C 3.089844 14.257812 3.226562 14.617188 3.503906 14.824219 C 3.777344 15.03125 4.140625 15.058594 4.441406 14.890625 L 8.003906 12.882812 L 11.570312 14.890625 C 11.871094 15.058594 12.234375 15.035156 12.507812 14.824219 C 12.785156 14.613281 12.921875 14.257812 12.867188 13.90625 L 12.179688 9.640625 L 15.074219 6.617188 C 15.3125 6.367188 15.398438 5.996094 15.292969 5.660156 C 15.1875 5.324219 14.914062 5.078125 14.582031 5.023438 L 10.589844 4.402344 Z M 8.804688 0.527344 "/>
</g>
</svg>
