<?xml version="1.0" encoding="UTF-8"?>
<svg xmlns="http://www.w3.org/2000/svg" xmlns:xlink="http://www.w3.org/1999/xlink" width="14px" height="px" viewBox="0 0 14 16" version="1.1">
<g id="surface1">
<path style=" stroke:none;fill-rule:nonzero;fill:rgb(255%,255%,255%);fill-opacity:1;" d="M 9.5 4 C 9.5 2.621094 8.378906 1.5 7 1.5 C 5.621094 1.5 4.5 2.621094 4.5 4 C 4.5 5.378906 5.621094 6.5 7 6.5 C 8.378906 6.5 9.5 5.378906 9.5 4 Z M 3 4 C 3 1.789062 4.789062 0 7 0 C 9.210938 0 11 1.789062 11 4 C 11 6.210938 9.210938 8 7 8 C 4.789062 8 3 6.210938 3 4 Z M 1.539062 14.5 L 12.460938 14.5 C 12.179688 12.523438 10.480469 11 8.429688 11 L 5.570312 11 C 3.519531 11 1.820312 12.523438 1.539062 14.5 Z M 0 15.070312 C 0 11.992188 2.492188 9.5 5.570312 9.5 L 8.429688 9.5 C 11.507812 9.5 14 11.992188 14 15.070312 C 14 15.585938 13.585938 16 13.070312 16 L 0.929688 16 C 0.414062 16 0 15.585938 0 15.070312 Z M 0 15.070312 "/>
</g>
</svg>
